<svg id="american-express-1" xmlns="http://www.w3.org/2000/svg" width="48" height="48" viewBox="0 0 48 48">
  <path id="Path_11627" data-name="Path 11627" d="M0,0H48V48H0Z" fill="#fff" fill-rule="evenodd"/>
  <path id="Path_11628" data-name="Path 11628" d="M5.169,54.314H5.032c0-.068-.034-.172-.034-.206s0-.1-.1-.1H4.688v.309h-.1v-.721h.309c.137,0,.24.035.24.172a.2.2,0,0,1-.068.172.179.179,0,0,1,.068.138v.137c0,.035,0,.035.034.035v.068ZM5.032,53.8c0-.1-.069-.1-.1-.1H4.688V53.9h.206C4.963,53.9,5.032,53.868,5.032,53.8Zm.584.137a.771.771,0,0,0-.79-.756.763.763,0,0,0-.756.756.773.773,0,1,0,1.546,0Zm-.1,0a.66.66,0,0,1-.687.653.632.632,0,0,1-.653-.653.652.652,0,0,1,.653-.653A.683.683,0,0,1,5.513,53.937ZM47.835,40.059c0,1.031-.653,1.511-1.821,1.511H43.781V40.539h2.232a.712.712,0,0,0,.447-.1.437.437,0,0,0,.137-.309.523.523,0,0,0-.137-.343.6.6,0,0,0-.412-.1c-1.065-.035-2.4.034-2.4-1.477a1.449,1.449,0,0,1,1.649-1.443h2.3v1.031h-2.13a.815.815,0,0,0-.446.068.492.492,0,0,0-.172.378.374.374,0,0,0,.24.344,1.756,1.756,0,0,0,.447.068h.618a1.949,1.949,0,0,1,1.34.378A1.484,1.484,0,0,1,47.835,40.059Zm-4.844-1.031a1.949,1.949,0,0,0-1.34-.378h-.618a1.761,1.761,0,0,1-.446-.068.374.374,0,0,1-.24-.344.4.4,0,0,1,.172-.378.814.814,0,0,1,.446-.068h2.13V36.76h-2.3c-1.237,0-1.649.756-1.649,1.443,0,1.511,1.34,1.443,2.405,1.477a.6.6,0,0,1,.412.1.525.525,0,0,1,.138.343.437.437,0,0,1-.138.309.781.781,0,0,1-.446.1H39.281V41.57h2.233c1.168,0,1.821-.481,1.821-1.511a1.482,1.482,0,0,0-.343-1.031Zm-4.4,1.546H35.88v-.962h2.645V38.65H35.88v-.893h2.713v-1H34.747V41.57h3.847v-1ZM33.51,37a2.883,2.883,0,0,0-1.408-.241H29.457V41.57h1.168V39.818h1.237c.412,0,.653.035.825.206a1.533,1.533,0,0,1,.206.962v.584h1.133v-.928a1.585,1.585,0,0,0-.172-.893,1.34,1.34,0,0,0-.584-.412,1.324,1.324,0,0,0,.825-1.271A1.078,1.078,0,0,0,33.51,37Zm-6.527-.241H23.307l-1.477,1.58-1.408-1.58H15.784V41.57h4.569l1.477-1.58,1.408,1.58h2.233V39.955h1.443c1,0,1.993-.275,1.993-1.615,0-1.305-1.031-1.58-1.924-1.58Zm5.6,1.993a1.427,1.427,0,0,1-.55.068l-1.408.035v-1.1h1.408a.932.932,0,0,1,.55.1.437.437,0,0,1,.24.412A.6.6,0,0,1,32.582,38.753Zm-5.6.24H25.471V37.757h1.512c.412,0,.687.172.687.584A.623.623,0,0,1,26.983,38.993Zm-4.432.172,1.786-1.889v3.882Zm-2.783,1.409H16.918v-.962H19.46V38.65H16.918v-.893H19.8l1.271,1.408-1.305,1.408ZM44.64,33.291H42.991l-2.164-3.607v3.607H38.491l-.447-1.065h-2.4l-.446,1.065h-1.34a2.485,2.485,0,0,1-1.683-.55,2.514,2.514,0,0,1-.584-1.821,2.483,2.483,0,0,1,.618-1.889,2.332,2.332,0,0,1,1.752-.55h1.1v1.031h-1.1a1.215,1.215,0,0,0-.893.275,1.557,1.557,0,0,0-.309,1.1,1.72,1.72,0,0,0,.309,1.134,1.146,1.146,0,0,0,.79.24h.515l1.649-3.779h1.718l1.924,4.534V28.482h1.786l2.027,3.332V28.482h1.168v4.809h0ZM31,28.482H29.835v4.809H31V28.482Zm-2.439.206a2.764,2.764,0,0,0-1.374-.206H24.544v4.809h1.134V31.539h1.237a1.177,1.177,0,0,1,.859.206,1.459,1.459,0,0,1,.172.928v.618h1.168v-.962a1.282,1.282,0,0,0-.206-.859,1.437,1.437,0,0,0-.55-.412,1.364,1.364,0,0,0,.825-1.271,1.19,1.19,0,0,0-.618-1.1Zm-4.844,3.607H21.04v-.962h2.645v-1H21.04v-.859h2.679v-1H19.872v4.809h3.847v-1Zm-4.706-3.813H17.124l-1.408,3.263L14.2,28.482H12.349v4.534l-1.958-4.534H8.673L6.612,33.291H7.849L8.3,32.226h2.4l.446,1.065h2.336V29.512l1.683,3.779h1l1.683-3.779v3.779h1.168V28.482h0ZM37.632,31.2l-.79-1.889-.79,1.889ZM27.67,30.44a1.05,1.05,0,0,1-.584.1H25.677V29.478h1.408a1.517,1.517,0,0,1,.584.069.511.511,0,0,1,.206.446A.473.473,0,0,1,27.67,30.44ZM8.707,31.2l.79-1.889.79,1.889ZM47.56,13.4H6.578V30.715L7.986,27.52h2.988l.412.79v-.79h3.5l.79,1.717.756-1.717H27.6a2.031,2.031,0,0,1,1.305.378V27.52h3.057V27.9a4.091,4.091,0,0,1,1.924-.378h4.431l.412.79v-.79h3.263l.481.79v-.79H45.67v6.733H42.441l-.618-1.03v1.03H37.8l-.446-1.1h-1l-.446,1.1h-2.1a4.116,4.116,0,0,1-1.855-.412v.412H26.983V32.707c0-.206-.034-.241-.172-.241H26.64v1.786H17.021v-.859l-.343.859H14.651l-.343-.825v.825H10.425l-.412-1.1h-1l-.446,1.1H6.578v20.3H47.56V42.222a4.206,4.206,0,0,1-1.683.309H42.888v-.412a2.65,2.65,0,0,1-1.546.412H31.93V40.986c0-.206-.034-.206-.206-.206h-.172v1.752H28.46V40.711a3.779,3.779,0,0,1-1.614.24H26.5v1.58H22.723L21.83,41.5l-1,1.031H14.753V35.8h6.183l.893,1.03.962-1.03h4.157a2.591,2.591,0,0,1,1.614.412V35.8h3.71a2.938,2.938,0,0,1,1.58.412V35.8h5.6v.412a2.284,2.284,0,0,1,1.408-.412h3.126v.412A2.484,2.484,0,0,1,45.43,35.8h2.13V13.4Z" transform="translate(-3.056 -10.064)" fill="#0077a6" fill-rule="evenodd"/>
</svg>
