<svg xmlns="http://www.w3.org/2000/svg" width="69" height="16.961" viewBox="0 0 69 16.961">
  <g id="Group_3136" data-name="Group 3136" transform="translate(-264.877 -744.068)">
    <path id="Path_11609" data-name="Path 11609" d="M316.337,747.618a4.245,4.245,0,0,1,1.941.576,2.928,2.928,0,0,1,1.067,1.163,3.026,3.026,0,0,1,.3,1.515,5.156,5.156,0,0,1-.363,1.632,6.078,6.078,0,0,1-.811,1.462,7.1,7.1,0,0,1-.992,1.056,5.721,5.721,0,0,1-1.077.736q-.555.288-1.067.5a1.738,1.738,0,0,1,1.216,1.366,4.14,4.14,0,0,1-.32,2.432l-1.3,3.221h-3.99a.842.842,0,0,1-.544-.224.548.548,0,0,1-.1-.672l1.429-3.52a.673.673,0,0,0-.043-.661.634.634,0,0,0-.555-.278h-.917l-2.155,5.355h-4.715l6.294-15.681h6.7Zm-2.005,4.544a.74.74,0,0,0-.011-.662.557.557,0,0,0-.523-.277h-.853l-1,2.453h.875a1.237,1.237,0,0,0,.736-.277,1.665,1.665,0,0,0,.544-.662Z" transform="translate(-27.069 -2.483)" fill="#fd7e14"/>
    <path id="Path_11610" data-name="Path 11610" d="M350.666,759.586h4.586l-4.936,12.129H345.75Z" transform="translate(-56.91 -10.92)" fill="#fd7e14"/>
    <path id="Path_11611" data-name="Path 11611" d="M369.666,747.6l-.9,2.21h-4.588l.451-1.11a1.759,1.759,0,0,1,1.633-1.1Z" transform="translate(-69.877 -2.486)" fill="#fd7e14"/>
    <path id="Path_11612" data-name="Path 11612" d="M380.841,760.794h-6.379a5.678,5.678,0,0,1-1.749-.267,2.748,2.748,0,0,1-1.344-.906,2.933,2.933,0,0,1-.576-1.7,6.294,6.294,0,0,1,.576-2.635q.128-.405.363-1,.192-.512.48-1.27t.715-1.8a7.712,7.712,0,0,1,2.389-3.318,6,6,0,0,1,3.84-1.248h.939a6.842,6.842,0,0,1,1.856.235l.725-1.771a1.7,1.7,0,0,1,.64-.768,1.654,1.654,0,0,1,.917-.278h3.456Zm-4.886-4.719q-.341.814-.2,1.049a.578.578,0,0,0,.544.236,1.391,1.391,0,0,0,.768-.193,1.493,1.493,0,0,0,.512-.728l1.9-4.986a.684.684,0,0,0,.011-.653.583.583,0,0,0-.544-.268,1.121,1.121,0,0,0-.757.2,2.228,2.228,0,0,0-.459.76Z" transform="translate(-74.528 0)" fill="#fd7e14"/>
    <path id="Path_11613" data-name="Path 11613" d="M463.8,757.165a1.2,1.2,0,0,1-.48.256,2.053,2.053,0,0,1-.629.107,1.464,1.464,0,0,0-.448.043l-4.054,9.963H453.6l5.654-13.889h4.587a5.55,5.55,0,0,1,2.838.64Z" transform="translate(-132.806 -6.739)" fill="#fd7e14"/>
    <path id="Path_11614" data-name="Path 11614" d="M278.7,755.682a3.188,3.188,0,0,0-.725-1.589,3.484,3.484,0,0,0-1.493-.982,6.526,6.526,0,0,0-2.187-.331h-.939a6,6,0,0,0-3.84,1.248,7.708,7.708,0,0,0-2.389,3.317q-.427,1.046-.736,1.835t-.523,1.344q-.235.639-.427,1.13a6.45,6.45,0,0,0-.555,2.635,2.932,2.932,0,0,0,.576,1.7,2.749,2.749,0,0,0,1.344.906,5.7,5.7,0,0,0,1.749.267h2.155a13.24,13.24,0,0,0,1.781-.107,4.347,4.347,0,0,0,1.419-.437,4.075,4.075,0,0,0,1.184-.949,8.33,8.33,0,0,0,1.077-1.643.185.185,0,0,1,.032-.075.191.191,0,0,0,.032-.1q.106-.256.021-.373a.446.446,0,0,0-.277-.16,1.454,1.454,0,0,0-.437-.022,3.526,3.526,0,0,0-.437.064c-.015,0-.021,0-.021.011s-.007.011-.021.011h-.043a10.611,10.611,0,0,1-2.4.32q-1.205.021-2.229.021a.642.642,0,0,1-.523-.192q-.16-.191.075-.853l1.984-5.056a1.928,1.928,0,0,1,.448-.758,1.17,1.17,0,0,1,.768-.2.584.584,0,0,1,.544.266.681.681,0,0,1-.011.651l-.092.274h-.944l-1.828,4.185h1.37a10.86,10.86,0,0,0,2.571-.341,6.079,6.079,0,0,0,1.824-.811,4.251,4.251,0,0,0,1.205-1.237,6.675,6.675,0,0,0,.736-1.643l.064-.171A5.557,5.557,0,0,0,278.7,755.682Z" transform="translate(0 -6.131)" fill="#fd7e14"/>
    <path id="Path_11615" data-name="Path 11615" d="M429.1,755.682a3.188,3.188,0,0,0-.725-1.589,3.485,3.485,0,0,0-1.493-.982,6.526,6.526,0,0,0-2.187-.331h-.939a6,6,0,0,0-3.84,1.248,7.708,7.708,0,0,0-2.389,3.317q-.427,1.046-.736,1.835t-.522,1.344q-.235.639-.427,1.13a6.447,6.447,0,0,0-.555,2.635,2.932,2.932,0,0,0,.576,1.7,2.747,2.747,0,0,0,1.344.906,5.7,5.7,0,0,0,1.749.267h2.155a13.244,13.244,0,0,0,1.781-.107,4.347,4.347,0,0,0,1.419-.437,4.069,4.069,0,0,0,1.184-.949,8.328,8.328,0,0,0,1.078-1.643.185.185,0,0,1,.032-.075.191.191,0,0,0,.032-.1q.107-.256.022-.373a.446.446,0,0,0-.277-.16,1.454,1.454,0,0,0-.437-.022,3.515,3.515,0,0,0-.437.064c-.015,0-.021,0-.021.011s-.007.011-.021.011h-.043a10.606,10.606,0,0,1-2.4.32q-1.206.021-2.23.021a.642.642,0,0,1-.522-.192q-.16-.191.075-.853l1.984-5.056a1.929,1.929,0,0,1,.448-.758,1.169,1.169,0,0,1,.768-.2.583.583,0,0,1,.544.266.68.68,0,0,1-.01.651l-.092.274h-.944l-1.828,4.185h1.37a10.861,10.861,0,0,0,2.571-.341,6.079,6.079,0,0,0,1.824-.811,4.252,4.252,0,0,0,1.205-1.237,6.686,6.686,0,0,0,.736-1.643l.064-.171A5.555,5.555,0,0,0,429.1,755.682Z" transform="translate(-105.839 -6.131)" fill="#fd7e14"/>
  </g>
</svg>
