<svg xmlns="http://www.w3.org/2000/svg" width="48" height="37.343" viewBox="0 0 48 37.343">
  <g id="mastercard-2" transform="translate(0 0.001)">
    <path id="Path_11616" data-name="Path 11616" d="M148.123,1322.327v.1h.09a.094.094,0,0,0,.048-.012.043.043,0,0,0,.018-.037.041.041,0,0,0-.018-.036.087.087,0,0,0-.048-.012h-.09Zm.09-.068a.166.166,0,0,1,.107.031.1.1,0,0,1,.038.085.1.1,0,0,1-.03.075.146.146,0,0,1-.086.036l.12.137h-.092l-.11-.136h-.036v.136h-.077v-.363h.168Zm-.024.489a.288.288,0,0,0,.118-.024.312.312,0,0,0,.1-.065.3.3,0,0,0,.065-.1.31.31,0,0,0,0-.238.314.314,0,0,0-.065-.1.308.308,0,0,0-.1-.065.3.3,0,0,0-.118-.022.3.3,0,0,0-.282.424.285.285,0,0,0,.064.1.306.306,0,0,0,.1.065.294.294,0,0,0,.12.024m0-.7a.4.4,0,0,1,.282.115.387.387,0,0,1,.085.428.4.4,0,0,1-.085.124.428.428,0,0,1-.126.084.391.391,0,0,1-.155.031.4.4,0,0,1-.157-.031.408.408,0,0,1-.127-.084.4.4,0,0,1-.084-.128.387.387,0,0,1,.085-.428.379.379,0,0,1,.127-.084.4.4,0,0,1,.157-.031m-36.745-1.4a1.193,1.193,0,1,1,1.195,1.261,1.182,1.182,0,0,1-1.195-1.261m3.189,0v-1.97h-.856v.48a1.493,1.493,0,0,0-1.244-.577,2.071,2.071,0,0,0,0,4.137,1.494,1.494,0,0,0,1.244-.577v.478h.855v-1.97Zm28.938,0a1.193,1.193,0,1,1,1.2,1.261,1.182,1.182,0,0,1-1.2-1.261m3.19,0V1317.1h-.857v2.061a1.493,1.493,0,0,0-1.244-.577,2.071,2.071,0,0,0,0,4.137,1.494,1.494,0,0,0,1.244-.577v.478h.857Zm-21.5-1.3a.978.978,0,0,1,1,.955h-2.044a1.014,1.014,0,0,1,1.047-.955m.017-.768a2.07,2.07,0,0,0,.057,4.137,2.392,2.392,0,0,0,1.615-.552l-.42-.635a1.878,1.878,0,0,1-1.146.412,1.094,1.094,0,0,1-1.178-.965h2.925c.008-.106.017-.214.017-.329a1.89,1.89,0,0,0-1.87-2.068m10.34,2.068a1.193,1.193,0,1,1,1.195,1.261,1.182,1.182,0,0,1-1.195-1.261m3.189,0v-1.969h-.856v.48a1.494,1.494,0,0,0-1.244-.577,2.071,2.071,0,0,0,0,4.137,1.5,1.5,0,0,0,1.244-.577v.478h.856v-1.97Zm-8.025,0a1.99,1.99,0,0,0,2.1,2.068,2.06,2.06,0,0,0,1.416-.469l-.411-.692a1.732,1.732,0,0,1-1.032.354,1.263,1.263,0,0,1,0-2.522,1.735,1.735,0,0,1,1.032.355l.411-.692a2.061,2.061,0,0,0-1.416-.47,1.99,1.99,0,0,0-2.1,2.068m11.041-2.068a1.163,1.163,0,0,0-1.038.577v-.477h-.849v3.938h.857v-2.208c0-.652.28-1.014.84-1.014a1.391,1.391,0,0,1,.536.1l.264-.807a1.819,1.819,0,0,0-.61-.108m-22.957.412a2.944,2.944,0,0,0-1.606-.412c-1,0-1.64.478-1.64,1.261,0,.642.478,1.038,1.359,1.162l.4.058c.47.066.691.189.691.412,0,.3-.312.478-.9.478a2.1,2.1,0,0,1-1.31-.412l-.4.668a2.841,2.841,0,0,0,1.705.511c1.137,0,1.8-.536,1.8-1.286,0-.692-.519-1.054-1.376-1.178l-.4-.059c-.371-.048-.668-.123-.668-.386,0-.288.28-.461.75-.461a2.542,2.542,0,0,1,1.228.337l.371-.692Zm11.051-.411a1.16,1.16,0,0,0-1.037.577v-.479h-.849v3.938h.856v-2.208c0-.652.28-1.014.84-1.014a1.391,1.391,0,0,1,.536.1l.264-.807a1.82,1.82,0,0,0-.61-.108m-7.308.1h-1.4v-1.2h-.866v1.2h-.8v.783h.8v1.8c0,.914.355,1.458,1.368,1.458a2.013,2.013,0,0,0,1.071-.3l-.247-.733a1.587,1.587,0,0,1-.758.223c-.428,0-.568-.264-.568-.659v-1.78h1.4Zm-12.8,3.939v-2.472a1.466,1.466,0,0,0-1.549-1.565,1.525,1.525,0,0,0-1.384.7,1.446,1.446,0,0,0-1.3-.7,1.3,1.3,0,0,0-1.154.585v-.487h-.857v3.938h.864v-2.184a.922.922,0,0,1,.965-1.047c.569,0,.856.371.856,1.038v2.192h.866v-2.184a.929.929,0,0,1,.964-1.047c.585,0,.864.371.864,1.038v2.192Z" transform="translate(-101.075 -1285.494)" fill="#231f20"/>
    <path id="Path_11617" data-name="Path 11617" d="M1930.1,977.8v-.576h-.15l-.174.4-.173-.4h-.15v.576h.106v-.434l.162.374h.111l.162-.375v.435h.106Zm-.951,0v-.477h.192v-.1h-.49v.1h.192v.477h.105Z" transform="translate(-1882.563 -953.77)" fill="#f79410"/>
    <path id="Path_11618" data-name="Path 11618" d="M742.689,155.475H729.71V132.15h12.979Z" transform="translate(-712.199 -128.979)" fill="#ff5f00"/>
    <path id="Path_11619" data-name="Path 11619" d="M18.334,14.834A14.81,14.81,0,0,1,24,3.171,14.834,14.834,0,1,0,24,26.5a14.81,14.81,0,0,1-5.665-11.663" transform="translate(0 0)" fill="#eb001b"/>
    <path id="Path_11620" data-name="Path 11620" d="M1024.11,14.834a14.833,14.833,0,0,1-24,11.663,14.836,14.836,0,0,0,0-23.325,14.833,14.833,0,0,1,24,11.663" transform="translate(-976.11 0)" fill="#f79e1b"/>
  </g>
</svg>
