<svg xmlns="http://www.w3.org/2000/svg" width="60" height="15" viewBox="0 0 60 15">
  <g id="paypal-2" transform="translate(0)">
    <path id="Path_11621" data-name="Path 11621" d="M40.783,6.749h-3.32a.465.465,0,0,0-.456.4l-1.343,8.717a.288.288,0,0,0,.063.228.274.274,0,0,0,.211.1h1.585a.465.465,0,0,0,.456-.4l.362-2.351a.465.465,0,0,1,.455-.4h1.051a3.435,3.435,0,0,0,3.779-3.231A2.667,2.667,0,0,0,43.2,7.617a3.04,3.04,0,0,0-2.42-.868Zm.383,3.184c-.182,1.22-1.092,1.22-1.972,1.22h-.5l.351-2.278a.279.279,0,0,1,.273-.239h.23c.6,0,1.165,0,1.457.35a1.155,1.155,0,0,1,.161.947Zm9.542-.039h-1.59a.279.279,0,0,0-.273.239l-.07.455-.111-.165a2.234,2.234,0,0,0-1.878-.682,3.688,3.688,0,0,0-3.55,3.274,3.127,3.127,0,0,0,.592,2.5,2.459,2.459,0,0,0,2,.828,3.015,3.015,0,0,0,2.2-.932l-.071.452a.288.288,0,0,0,.063.228.274.274,0,0,0,.21.1h1.432a.465.465,0,0,0,.456-.4l.859-5.571a.287.287,0,0,0-.062-.228.273.273,0,0,0-.21-.1Zm-2.216,3.168A1.785,1.785,0,0,1,46.7,14.616a1.326,1.326,0,0,1-1.068-.439,1.409,1.409,0,0,1-.25-1.144,1.793,1.793,0,0,1,1.782-1.567,1.326,1.326,0,0,1,1.06.443A1.434,1.434,0,0,1,48.491,13.062ZM59.175,9.893h-1.6a.46.46,0,0,0-.382.207l-2.2,3.323-.934-3.194a.464.464,0,0,0-.443-.337h-1.57a.275.275,0,0,0-.226.118.289.289,0,0,0-.037.257l1.76,5.288-1.655,2.391a.289.289,0,0,0-.02.294.276.276,0,0,0,.246.153h1.6a.458.458,0,0,0,.379-.2L59.4,10.338a.289.289,0,0,0,.018-.293.276.276,0,0,0-.245-.152Z" transform="translate(-18.347 -3.394)" fill="#253b80"/>
    <path id="Path_11622" data-name="Path 11622" d="M89.563,6.748H86.243a.465.465,0,0,0-.455.4l-1.343,8.717a.288.288,0,0,0,.063.228.274.274,0,0,0,.21.1h1.7a.325.325,0,0,0,.318-.279l.381-2.471a.465.465,0,0,1,.455-.4h1.051a3.435,3.435,0,0,0,3.78-3.231,2.665,2.665,0,0,0-.424-2.194,3.037,3.037,0,0,0-2.419-.868Zm.383,3.184c-.181,1.22-1.091,1.22-1.972,1.22h-.5l.352-2.278a.278.278,0,0,1,.273-.239h.23c.6,0,1.165,0,1.457.35A1.155,1.155,0,0,1,89.946,9.932Zm9.541-.039H97.9a.277.277,0,0,0-.273.239l-.07.455-.112-.165a2.233,2.233,0,0,0-1.877-.682,3.688,3.688,0,0,0-3.549,3.274,3.129,3.129,0,0,0,.592,2.5,2.461,2.461,0,0,0,2,.828,3.015,3.015,0,0,0,2.2-.932l-.071.452a.288.288,0,0,0,.063.229.274.274,0,0,0,.211.1h1.432a.465.465,0,0,0,.455-.4l.86-5.571a.289.289,0,0,0-.064-.228.275.275,0,0,0-.211-.1Zm-2.216,3.168a1.784,1.784,0,0,1-1.794,1.554,1.327,1.327,0,0,1-1.068-.439,1.413,1.413,0,0,1-.25-1.144,1.794,1.794,0,0,1,1.782-1.567,1.326,1.326,0,0,1,1.06.443A1.427,1.427,0,0,1,97.272,13.061Zm4.091-6.073L100,15.864a.288.288,0,0,0,.063.228.274.274,0,0,0,.21.1h1.37a.464.464,0,0,0,.456-.4l1.344-8.716a.288.288,0,0,0-.063-.228.274.274,0,0,0-.21-.1h-1.534A.279.279,0,0,0,101.362,6.988Z" transform="translate(-43.446 -3.394)" fill="#179bd7"/>
    <path id="Path_11623" data-name="Path 11623" d="M4.073,15.006l.254-1.651-.566-.013h-2.7L2.938,1.157a.155.155,0,0,1,.152-.133H7.644a3.993,3.993,0,0,1,3.1.958,2.2,2.2,0,0,1,.5.953,3.52,3.52,0,0,1,0,1.314l-.006.038v.336l.255.148a1.8,1.8,0,0,1,.517.4,1.9,1.9,0,0,1,.419.963,4.17,4.17,0,0,1-.06,1.4,5,5,0,0,1-.559,1.582,3.228,3.228,0,0,1-.886.994,3.555,3.555,0,0,1-1.193.551,5.819,5.819,0,0,1-1.491.176H7.886a1.06,1.06,0,0,0-.693.261,1.105,1.105,0,0,0-.361.66l-.027.149-.449,2.91-.02.107a.093.093,0,0,1-.028.062.074.074,0,0,1-.047.017Z" transform="translate(-0.546 -0.515)" fill="#253b80"/>
    <path id="Path_11624" data-name="Path 11624" d="M14.374,7.667q-.02.133-.047.273c-.6,3.157-2.655,4.247-5.279,4.247H7.712a.654.654,0,0,0-.641.563l-.684,4.442-.194,1.259a.356.356,0,0,0,.078.282.339.339,0,0,0,.26.123H8.9a.575.575,0,0,0,.563-.492l.023-.123.446-2.9.029-.159a.574.574,0,0,1,.563-.493h.354c2.3,0,4.093-.954,4.618-3.716a3.224,3.224,0,0,0-.475-2.794A2.273,2.273,0,0,0,14.374,7.667Z" transform="translate(-3.184 -3.856)" fill="#179bd7"/>
    <path id="Path_11625" data-name="Path 11625" d="M14.68,6.928a4.643,4.643,0,0,0-.584-.133,7.251,7.251,0,0,0-1.178-.088H9.349a.573.573,0,0,0-.563.493l-.759,4.924L8,12.267a.654.654,0,0,1,.641-.563H9.982c2.624,0,4.679-1.091,5.279-4.247.018-.093.033-.184.047-.273a3.161,3.161,0,0,0-.494-.213l-.134-.043Z" transform="translate(-4.119 -3.373)" fill="#222d65"/>
    <path id="Path_11626" data-name="Path 11626" d="M4.668,3.827a.572.572,0,0,1,.563-.493H8.8a7.251,7.251,0,0,1,1.178.088A4.645,4.645,0,0,1,10.7,3.6a3.209,3.209,0,0,1,.494.213,3.033,3.033,0,0,0-.618-2.68A4.459,4.459,0,0,0,7.1,0H2.545A.656.656,0,0,0,1.9.563L0,12.873a.407.407,0,0,0,.089.323.388.388,0,0,0,.3.141H3.2l.706-4.585Z" transform="translate(0)" fill="#253b80"/>
  </g>
</svg>
